<svg xmlns="http://www.w3.org/2000/svg" xmlns:xlink="http://www.w3.org/1999/xlink" viewBox="0 0 512 512" id="qr-code-scan"><defs><linearGradient id="a" x1="6.7" x2="508.35" y1="256" y2="256" gradientUnits="userSpaceOnUse"><stop offset="0" stop-color="#7738c8"></stop><stop offset="1" stop-color="#461d93"></stop></linearGradient><linearGradient id="b" x1="6.7" x2="508.35" y1="192.5" y2="192.5" xlink:href="#a"></linearGradient><linearGradient id="c" x1="6.7" x2="508.35" y1="187.5" y2="187.5" xlink:href="#a"></linearGradient><linearGradient id="d" x1="6.7" x2="508.35" y1="267.5" y2="267.5" xlink:href="#a"></linearGradient><linearGradient id="e" x1="6.7" x2="508.35" y1="147.5" y2="147.5" xlink:href="#a"></linearGradient><linearGradient id="f" x1="6.7" x2="508.35" y1="307.5" y2="307.5" xlink:href="#a"></linearGradient><linearGradient id="g" x1="6.7" x2="508.35" y1="262.5" y2="262.5" xlink:href="#a"></linearGradient><linearGradient id="h" x1="6.7" x2="508.35" y1="407.5" y2="407.5" xlink:href="#a"></linearGradient></defs><path fill="url(#a)" d="M411,0H191a27.54,27.54,0,0,0-27.5,27.5V80H101a27.54,27.54,0,0,0-27.5,27.5v240A27.54,27.54,0,0,0,101,375h62.5V484.5A27.54,27.54,0,0,0,191,512H411a27.54,27.54,0,0,0,27.5-27.5V27.5A27.54,27.54,0,0,0,411,0ZM248.5,15h105V27.5A12.52,12.52,0,0,1,341,40H261a12.52,12.52,0,0,1-12.5-12.5ZM88.5,347.5v-240A12.52,12.52,0,0,1,101,95H341a12.52,12.52,0,0,1,12.5,12.5v240A12.52,12.52,0,0,1,341,360H101A12.52,12.52,0,0,1,88.5,347.5ZM341,375a27.54,27.54,0,0,0,27.5-27.5v-240A27.54,27.54,0,0,0,341,80H178.5V27.5A12.52,12.52,0,0,1,191,15h42.5V27.5A27.54,27.54,0,0,0,261,55h80a27.54,27.54,0,0,0,27.5-27.5V15H411a12.52,12.52,0,0,1,12.5,12.5V447h-245V375Zm70,122H191a12.52,12.52,0,0,1-12.5-12.5V462h245v22.5A12.52,12.52,0,0,1,411,497Z"></path><path fill="url(#b)" d="M211,160H161a7.5,7.5,0,0,0-7.5,7.5v50A7.5,7.5,0,0,0,161,225h50a7.5,7.5,0,0,0,7.5-7.5v-50A7.5,7.5,0,0,0,211,160Zm-7.5,50h-35V175h35Z"></path><path fill="url(#c)" d="M241,215h40a7.5,7.5,0,0,0,7.5-7.5v-40A7.5,7.5,0,0,0,281,160H241a7.5,7.5,0,0,0-7.5,7.5v40A7.5,7.5,0,0,0,241,215Zm7.5-40h25v25h-25Z"></path><path fill="url(#d)" d="M201,240H161a7.5,7.5,0,0,0-7.5,7.5v40A7.5,7.5,0,0,0,161,295h40a7.5,7.5,0,0,0,7.5-7.5v-40A7.5,7.5,0,0,0,201,240Zm-7.5,40h-25V255h25Z"></path><path fill="url(#e)" d="M121,175a7.5,7.5,0,0,0,7.5-7.5V135H161a7.5,7.5,0,0,0,0-15H121a7.5,7.5,0,0,0-7.5,7.5v40A7.5,7.5,0,0,0,121,175Z"></path><path fill="url(#f)" d="M161,320H128.5V287.5a7.5,7.5,0,0,0-15,0v40A7.5,7.5,0,0,0,121,335h40a7.5,7.5,0,0,0,0-15Z"></path><path fill="url(#e)" d="M321,120H281a7.5,7.5,0,0,0,0,15h32.5v32.5a7.5,7.5,0,0,0,15,0v-40A7.5,7.5,0,0,0,321,120Z"></path><path fill="url(#f)" d="M321,280a7.5,7.5,0,0,0-7.5,7.5V320H281a7.5,7.5,0,0,0,0,15h40a7.5,7.5,0,0,0,7.5-7.5v-40A7.5,7.5,0,0,0,321,280Z"></path><path fill="url(#g)" d="M288.5,287.5v-50A7.5,7.5,0,0,0,281,230H231a7.5,7.5,0,0,0-7.5,7.5v50A7.5,7.5,0,0,0,231,295h50A7.5,7.5,0,0,0,288.5,287.5Zm-15-7.5h-35V245h35Z"></path><path fill="url(#h)" d="M281 415h80a7.5 7.5 0 000-15H281a7.5 7.5 0 000 15zM211 415h45a7.5 7.5 0 000-15H211a7.5 7.5 0 000 15z"></path></svg>